<svg width="227" height="61" viewBox="0 0 227 61" fill="none" xmlns="http://www.w3.org/2000/svg">
<rect x="1.99994" y="2" width="223" height="57" rx="28.5" stroke="url(#paint0_linear_39_14)" stroke-width="4" stroke-linejoin="round"/>
<g filter="url(#filter0_d_39_14)">
<path d="M41.9119 38L38.5519 31.76H38.0479V38H33.3439V21.08H40.7599C42.1199 21.08 43.2719 21.32 44.2159 21.8C45.1599 22.264 45.8719 22.912 46.3519 23.744C46.8319 24.56 47.0719 25.48 47.0719 26.504C47.0719 27.656 46.7519 28.672 46.1119 29.552C45.4879 30.416 44.5679 31.032 43.3519 31.4L47.1679 38H41.9119ZM38.0479 28.544H40.3759C41.6559 28.544 42.2959 27.952 42.2959 26.768C42.2959 26.224 42.1279 25.792 41.7919 25.472C41.4719 25.152 40.9999 24.992 40.3759 24.992H38.0479V28.544ZM62.0751 31.088C62.0751 31.456 62.0511 31.824 62.0031 32.192H53.0751C53.1391 32.944 53.3471 33.504 53.6991 33.872C54.0671 34.224 54.5311 34.4 55.0911 34.4C55.8751 34.4 56.4351 34.048 56.7711 33.344H61.7871C61.5791 34.272 61.1711 35.104 60.5631 35.84C59.9711 36.56 59.2191 37.128 58.3071 37.544C57.3951 37.96 56.3871 38.168 55.2831 38.168C53.9551 38.168 52.7711 37.888 51.7311 37.328C50.7071 36.768 49.8991 35.968 49.3071 34.928C48.7311 33.888 48.4431 32.664 48.4431 31.256C48.4431 29.848 48.7311 28.632 49.3071 27.608C49.8831 26.568 50.6831 25.768 51.7071 25.208C52.7471 24.648 53.9391 24.368 55.2831 24.368C56.6111 24.368 57.7871 24.64 58.8111 25.184C59.8351 25.728 60.6351 26.512 61.2111 27.536C61.7871 28.544 62.0751 29.728 62.0751 31.088ZM57.2751 30.08C57.2751 29.44 57.0831 28.952 56.6991 28.616C56.3151 28.264 55.8351 28.088 55.2591 28.088C54.6671 28.088 54.1791 28.256 53.7951 28.592C53.4271 28.928 53.1951 29.424 53.0991 30.08H57.2751ZM68.9682 24.368C69.8802 24.368 70.6722 24.552 71.3442 24.92C72.0322 25.288 72.5602 25.784 72.9282 26.408V24.536H77.6322V37.856C77.6322 39.12 77.3922 40.256 76.9122 41.264C76.4322 42.288 75.6802 43.104 74.6562 43.712C73.6482 44.32 72.3682 44.624 70.8162 44.624C68.7362 44.624 67.0722 44.136 65.8242 43.16C64.5762 42.184 63.8642 40.856 63.6882 39.176H68.3202C68.4162 39.608 68.6562 39.944 69.0402 40.184C69.4242 40.424 69.9202 40.544 70.5282 40.544C72.1282 40.544 72.9282 39.648 72.9282 37.856V36.128C72.5602 36.752 72.0322 37.248 71.3442 37.616C70.6722 37.984 69.8802 38.168 68.9682 38.168C67.8962 38.168 66.9202 37.888 66.0402 37.328C65.1762 36.768 64.4882 35.968 63.9762 34.928C63.4802 33.872 63.2322 32.648 63.2322 31.256C63.2322 29.864 63.4802 28.648 63.9762 27.608C64.4882 26.568 65.1762 25.768 66.0402 25.208C66.9202 24.648 67.8962 24.368 68.9682 24.368ZM72.9282 31.256C72.9282 30.392 72.6882 29.712 72.2082 29.216C71.7442 28.72 71.1682 28.472 70.4802 28.472C69.7762 28.472 69.1922 28.72 68.7282 29.216C68.2642 29.696 68.0322 30.376 68.0322 31.256C68.0322 32.12 68.2642 32.808 68.7282 33.32C69.1922 33.816 69.7762 34.064 70.4802 34.064C71.1682 34.064 71.7442 33.816 72.2082 33.32C72.6882 32.824 72.9282 32.136 72.9282 31.256ZM82.6887 23.288C81.8567 23.288 81.1847 23.064 80.6727 22.616C80.1767 22.152 79.9287 21.576 79.9287 20.888C79.9287 20.184 80.1767 19.6 80.6727 19.136C81.1847 18.672 81.8567 18.44 82.6887 18.44C83.5047 18.44 84.1607 18.672 84.6567 19.136C85.1687 19.6 85.4247 20.184 85.4247 20.888C85.4247 21.576 85.1687 22.152 84.6567 22.616C84.1607 23.064 83.5047 23.288 82.6887 23.288ZM85.0167 24.536V38H80.3127V24.536H85.0167ZM93.4075 38.168C92.1915 38.168 91.1115 37.968 90.1675 37.568C89.2235 37.152 88.4715 36.592 87.9115 35.888C87.3675 35.168 87.0635 34.36 86.9995 33.464H91.5595C91.6235 33.912 91.8155 34.256 92.1355 34.496C92.4715 34.736 92.8955 34.856 93.4075 34.856C93.7915 34.856 94.0955 34.776 94.3195 34.616C94.5435 34.44 94.6555 34.224 94.6555 33.968C94.6555 33.632 94.4715 33.384 94.1035 33.224C93.7355 33.064 93.1275 32.888 92.2795 32.696C91.3035 32.488 90.4955 32.272 89.8555 32.048C89.2315 31.824 88.6875 31.448 88.2235 30.92C87.7595 30.376 87.5275 29.64 87.5275 28.712C87.5275 27.896 87.7355 27.16 88.1515 26.504C88.5835 25.848 89.2155 25.328 90.0475 24.944C90.8955 24.56 91.9115 24.368 93.0955 24.368C94.8555 24.368 96.2395 24.8 97.2475 25.664C98.2555 26.528 98.8395 27.664 98.9995 29.072H94.7515C94.6715 28.64 94.4795 28.304 94.1755 28.064C93.8875 27.808 93.4955 27.68 92.9995 27.68C92.6155 27.68 92.3195 27.76 92.1115 27.92C91.9195 28.064 91.8235 28.272 91.8235 28.544C91.8235 28.864 92.0075 29.112 92.3755 29.288C92.7435 29.448 93.3355 29.616 94.1515 29.792C95.1275 30 95.9355 30.232 96.5755 30.488C97.2315 30.744 97.7995 31.152 98.2795 31.712C98.7595 32.272 98.9995 33.04 98.9995 34.016C98.9995 34.8 98.7755 35.512 98.3275 36.152C97.8795 36.776 97.2315 37.272 96.3835 37.64C95.5515 37.992 94.5595 38.168 93.4075 38.168ZM109.28 33.992V38H107.24C103.8 38 102.08 36.296 102.08 32.888V28.448H100.424V24.536H102.08V21.272H106.808V24.536H109.256V28.448H106.808V32.96C106.808 33.328 106.888 33.592 107.048 33.752C107.224 33.912 107.512 33.992 107.912 33.992H109.28ZM124.302 31.088C124.302 31.456 124.278 31.824 124.23 32.192H115.302C115.366 32.944 115.574 33.504 115.926 33.872C116.294 34.224 116.758 34.4 117.318 34.4C118.102 34.4 118.662 34.048 118.998 33.344H124.014C123.806 34.272 123.398 35.104 122.79 35.84C122.198 36.56 121.446 37.128 120.534 37.544C119.622 37.96 118.614 38.168 117.51 38.168C116.182 38.168 114.998 37.888 113.958 37.328C112.934 36.768 112.126 35.968 111.534 34.928C110.958 33.888 110.67 32.664 110.67 31.256C110.67 29.848 110.958 28.632 111.534 27.608C112.11 26.568 112.91 25.768 113.934 25.208C114.974 24.648 116.166 24.368 117.51 24.368C118.838 24.368 120.014 24.64 121.038 25.184C122.062 25.728 122.862 26.512 123.438 27.536C124.014 28.544 124.302 29.728 124.302 31.088ZM119.502 30.08C119.502 29.44 119.31 28.952 118.926 28.616C118.542 28.264 118.062 28.088 117.486 28.088C116.894 28.088 116.406 28.256 116.022 28.592C115.654 28.928 115.422 29.424 115.326 30.08H119.502ZM130.931 26.984C131.459 26.2 132.099 25.576 132.851 25.112C133.603 24.648 134.411 24.416 135.275 24.416V29.432H133.955C132.931 29.432 132.171 29.632 131.675 30.032C131.179 30.432 130.931 31.128 130.931 32.12V38H126.227V24.536H130.931V26.984ZM157.461 38H152.757L146.493 28.544V38H141.789V21.08H146.493L152.757 30.656V21.08H157.461V38ZM166.405 38.168C165.061 38.168 163.853 37.888 162.781 37.328C161.725 36.768 160.893 35.968 160.285 34.928C159.677 33.888 159.373 32.664 159.373 31.256C159.373 29.864 159.677 28.648 160.285 27.608C160.909 26.568 161.749 25.768 162.805 25.208C163.877 24.648 165.085 24.368 166.429 24.368C167.773 24.368 168.973 24.648 170.029 25.208C171.101 25.768 171.941 26.568 172.549 27.608C173.173 28.648 173.485 29.864 173.485 31.256C173.485 32.648 173.173 33.872 172.549 34.928C171.941 35.968 171.101 36.768 170.029 37.328C168.957 37.888 167.749 38.168 166.405 38.168ZM166.405 34.112C167.045 34.112 167.589 33.872 168.037 33.392C168.485 32.896 168.709 32.184 168.709 31.256C168.709 30.344 168.485 29.648 168.037 29.168C167.605 28.672 167.069 28.424 166.429 28.424C165.789 28.424 165.253 28.672 164.821 29.168C164.389 29.648 164.173 30.344 164.173 31.256C164.173 32.184 164.381 32.896 164.797 33.392C165.213 33.872 165.749 34.112 166.405 34.112ZM195.295 24.536L191.863 38H186.583L184.711 29.84L182.767 38H177.511L174.103 24.536H178.783L180.295 33.464L182.287 24.536H187.327L189.391 33.488L190.879 24.536H195.295Z" fill="url(#paint1_linear_39_14)"/>
</g>
<defs>
<filter id="filter0_d_39_14" x="29.3439" y="18.44" width="169.951" height="34.184" filterUnits="userSpaceOnUse" color-interpolation-filters="sRGB">
<feFlood flood-opacity="0" result="BackgroundImageFix"/>
<feColorMatrix in="SourceAlpha" type="matrix" values="0 0 0 0 0 0 0 0 0 0 0 0 0 0 0 0 0 0 127 0" result="hardAlpha"/>
<feOffset dy="4"/>
<feGaussianBlur stdDeviation="2"/>
<feComposite in2="hardAlpha" operator="out"/>
<feColorMatrix type="matrix" values="0 0 0 0 0 0 0 0 0 0 0 0 0 0 0 0 0 0 0.25 0"/>
<feBlend mode="normal" in2="BackgroundImageFix" result="effect1_dropShadow_39_14"/>
<feBlend mode="normal" in="SourceGraphic" in2="effect1_dropShadow_39_14" result="shape"/>
</filter>
<linearGradient id="paint0_linear_39_14" x1="-3.01563" y1="64.8562" x2="225.369" y2="3.37234" gradientUnits="userSpaceOnUse">
<stop stop-color="#FF003F"/>
<stop offset="0.479739" stop-color="#8337AA"/>
<stop offset="1" stop-color="#11008F"/>
</linearGradient>
<linearGradient id="paint1_linear_39_14" x1="215.56" y1="4.87502" x2="13.9992" y2="48.2525" gradientUnits="userSpaceOnUse">
<stop stop-color="#11008F"/>
<stop offset="0.5" stop-color="#B10B85"/>
<stop offset="1" stop-color="#FF002B"/>
</linearGradient>
</defs>
</svg>
